<svg width="16" height="16" viewBox="0 0 16 16" fill="none" xmlns="http://www.w3.org/2000/svg">
<path d="M1.71368 1.60011L3.2073 11.3086C3.21817 11.3888 3.2409 11.4652 3.27368 11.5359C3.37234 11.749 3.56196 11.9113 3.7927 11.973C3.86319 11.9919 3.93706 12.0014 4.01262 12.0001H12.8C13.1533 12.0001 13.4647 11.7684 13.5663 11.43L15.9663 3.42999C16.0389 3.18777 15.9928 2.92545 15.8418 2.72256C15.6909 2.51968 15.4529 2.40011 15.2 2.40011H3.45558L3.19246 0.689863C3.18261 0.618357 3.1633 0.549867 3.13585 0.485694C3.08601 0.368833 3.0097 0.267607 2.91543 0.188263C2.82798 0.11451 2.72448 0.0591689 2.61093 0.0282119C2.53947 0.00864049 2.46448 -0.00116241 2.38776 0.000109864H0.8C0.358172 0.000109864 0 0.358282 0 0.80011C0 1.24194 0.358172 1.60011 0.8 1.60011H1.71368ZM4.68635 10.4001L3.70173 4.00011H14.1248L12.2048 10.4001H4.68635Z" fill="#353535"/>
<path d="M6.4 14.4001C6.4 15.2838 5.68365 16.0001 4.8 16.0001C3.91634 16.0001 3.2 15.2838 3.2 14.4001C3.2 13.5164 3.91634 12.8001 4.8 12.8001C5.68365 12.8001 6.4 13.5164 6.4 14.4001Z" fill="#353535"/>
<path d="M13.6 14.4001C13.6 15.2838 12.8837 16.0001 12 16.0001C11.1163 16.0001 10.4 15.2838 10.4 14.4001C10.4 13.5164 11.1163 12.8001 12 12.8001C12.8837 12.8001 13.6 13.5164 13.6 14.4001Z" fill="#353535"/>
</svg>
