<svg width="64" height="64" viewBox="0 0 64 64" fill="none" xmlns="http://www.w3.org/2000/svg">
<circle cx="32" cy="32" r="32" fill="#D9D9D3"/>
<path d="M35.2667 23.25C35.2667 23.4047 35.3281 23.5531 35.4375 23.6625C35.5469 23.7719 35.6953 23.8333 35.85 23.8333C36.0047 23.8333 36.1531 23.7719 36.2625 23.6625C36.3719 23.5531 36.4333 23.4047 36.4333 23.25C36.4272 23.0778 36.4808 22.9088 36.585 22.7717C36.7959 22.4539 36.9057 22.0797 36.9 21.6983C36.9057 21.317 36.7959 20.9428 36.585 20.625C36.4808 20.4878 36.4272 20.3188 36.4333 20.1467C36.4272 19.9745 36.4808 19.8055 36.585 19.6683C36.7982 19.3472 36.9081 18.9687 36.9 18.5833C36.9 18.4286 36.8385 18.2803 36.7291 18.1709C36.6197 18.0615 36.4714 18 36.3167 18C36.162 18 36.0136 18.0615 35.9042 18.1709C35.7948 18.2803 35.7333 18.4286 35.7333 18.5833C35.7395 18.7555 35.6859 18.9245 35.5817 19.0617C35.3708 19.3795 35.261 19.7536 35.2667 20.135C35.261 20.5164 35.3708 20.8905 35.5817 21.2083C35.6859 21.3455 35.7395 21.5145 35.7333 21.6867C35.7395 21.8588 35.6859 22.0278 35.5817 22.165C35.3685 22.4861 35.2586 22.8647 35.2667 23.25ZM31.7667 23.25C31.7667 23.4047 31.8281 23.5531 31.9375 23.6625C32.0469 23.7719 32.1953 23.8333 32.35 23.8333C32.5047 23.8333 32.6531 23.7719 32.7625 23.6625C32.8719 23.5531 32.9333 23.4047 32.9333 23.25C32.9272 23.0778 32.9808 22.9088 33.085 22.7717C33.2959 22.4539 33.4057 22.0797 33.4 21.6983C33.4057 21.317 33.2959 20.9428 33.085 20.625C32.9808 20.4878 32.9272 20.3188 32.9333 20.1467C32.9272 19.9745 32.9808 19.8055 33.085 19.6683C33.2982 19.3472 33.4081 18.9687 33.4 18.5833C33.4 18.4286 33.3385 18.2803 33.2291 18.1709C33.1197 18.0615 32.9714 18 32.8167 18C32.662 18 32.5136 18.0615 32.4042 18.1709C32.2948 18.2803 32.2333 18.4286 32.2333 18.5833C32.2395 18.7555 32.1859 18.9245 32.0817 19.0617C31.8708 19.3795 31.761 19.7536 31.7667 20.135C31.761 20.5164 31.8708 20.8905 32.0817 21.2083C32.1859 21.3455 32.2395 21.5145 32.2333 21.6867C32.2395 21.8588 32.1859 22.0278 32.0817 22.165C31.8685 22.4861 31.7586 22.8647 31.7667 23.25ZM28.2667 23.25C28.2667 23.4047 28.3281 23.5531 28.4375 23.6625C28.5469 23.7719 28.6953 23.8333 28.85 23.8333C29.0047 23.8333 29.1531 23.7719 29.2625 23.6625C29.3719 23.5531 29.4333 23.4047 29.4333 23.25C29.4272 23.0778 29.4808 22.9088 29.585 22.7717C29.7959 22.4539 29.9057 22.0797 29.9 21.6983C29.9057 21.317 29.7959 20.9428 29.585 20.625C29.4808 20.4878 29.4272 20.3188 29.4333 20.1467C29.4272 19.9745 29.4808 19.8055 29.585 19.6683C29.7982 19.3472 29.9081 18.9687 29.9 18.5833C29.9 18.4286 29.8385 18.2803 29.7291 18.1709C29.6197 18.0615 29.4714 18 29.3167 18C29.162 18 29.0136 18.0615 28.9042 18.1709C28.7948 18.2803 28.7333 18.4286 28.7333 18.5833C28.7395 18.7555 28.6859 18.9245 28.5817 19.0617C28.3708 19.3795 28.261 19.7536 28.2667 20.135C28.261 20.5164 28.3708 20.8905 28.5817 21.2083C28.6859 21.3455 28.7395 21.5145 28.7333 21.6867C28.7395 21.8588 28.6859 22.0278 28.5817 22.165C28.3685 22.4861 28.2586 22.8647 28.2667 23.25ZM45.4167 40.1667H38.4167C39.0141 39.6769 39.5542 39.1212 40.0267 38.51C41.2794 38.0872 42.4173 37.3805 43.3517 36.445C44.1684 35.6338 44.8159 34.6685 45.2565 33.605C45.6971 32.5415 45.9221 31.4011 45.9183 30.25C45.9183 29.7879 45.7356 29.3445 45.4099 29.0167C45.0842 28.6888 44.6421 28.5031 44.18 28.5H42.3833L42.5 26.7967C42.5065 26.7162 42.4962 26.6353 42.4697 26.5591C42.4433 26.4828 42.4014 26.4129 42.3466 26.3537C42.2917 26.2945 42.2252 26.2473 42.1512 26.2151C42.0772 26.1829 41.9974 26.1664 41.9167 26.1667H22.0833C22.0037 26.1665 21.9249 26.1827 21.8517 26.2142C21.7786 26.2456 21.7126 26.2918 21.658 26.3497C21.6033 26.4076 21.5611 26.4761 21.5339 26.551C21.5068 26.6259 21.4952 26.7055 21.5 26.785L21.9433 33.2483C22.0543 34.5869 22.4338 35.8893 23.0592 37.078C23.6845 38.2666 24.543 39.3171 25.5833 40.1667H18.5833C18.4286 40.1667 18.2803 40.2281 18.1709 40.3375C18.0615 40.4469 18 40.5953 18 40.75C18 42.1424 18.5531 43.4777 19.5377 44.4623C20.5223 45.4469 21.8576 46 23.25 46H40.75C42.1424 46 43.4777 45.4469 44.4623 44.4623C45.4469 43.4777 46 42.1424 46 40.75C46 40.5953 45.9385 40.4469 45.8291 40.3375C45.7197 40.2281 45.5714 40.1667 45.4167 40.1667ZM42.0567 33.2367L42.3017 29.6667H44.18C44.3347 29.6667 44.4831 29.7281 44.5925 29.8375C44.7019 29.9469 44.7633 30.0953 44.7633 30.25C44.7621 31.5579 44.4232 32.8434 43.7794 33.9819C43.1355 35.1204 42.2086 36.0733 41.0883 36.7483C41.6202 35.6458 41.9483 34.456 42.0567 33.2367ZM23.11 33.1667L22.6667 27.3333H41.3333L40.9367 33.1667C40.8233 34.6148 40.3525 36.0122 39.5666 37.2339C38.7807 38.4555 37.7042 39.4631 36.4333 40.1667H27.6133C26.3458 39.4591 25.272 38.4504 24.4866 37.2296C23.7012 36.0088 23.2285 34.6134 23.11 33.1667ZM40.75 44.8333H23.25C22.2616 44.841 21.3037 44.4909 20.5532 43.8476C19.8027 43.2043 19.3103 42.3113 19.1667 41.3333H44.8333C44.6897 42.3113 44.1973 43.2043 43.4468 43.8476C42.6963 44.4909 41.7384 44.841 40.75 44.8333Z" fill="black"/>
</svg>
