<svg width="14" height="16" viewBox="0 0 14 16" fill="none" xmlns="http://www.w3.org/2000/svg">
<path d="M7 1.6C5.28178 1.6 3.88889 3.03269 3.88889 4.8C3.88889 6.56731 5.28178 8 7 8C8.71822 8 10.1111 6.56731 10.1111 4.8C10.1111 3.03269 8.71822 1.6 7 1.6ZM2.33333 4.8C2.33333 2.14903 4.42267 0 7 0C9.57733 0 11.6667 2.14903 11.6667 4.8C11.6667 7.45097 9.57733 9.6 7 9.6C4.42267 9.6 2.33333 7.45097 2.33333 4.8ZM3.88889 12.8C2.60022 12.8 1.55556 13.8745 1.55556 15.2C1.55556 15.6418 1.20733 16 0.777778 16C0.348223 16 0 15.6418 0 15.2C0 12.9909 1.74112 11.2 3.88889 11.2H10.1111C12.2589 11.2 14 12.9909 14 15.2C14 15.6418 13.6518 16 13.2222 16C12.7927 16 12.4444 15.6418 12.4444 15.2C12.4444 13.8745 11.3998 12.8 10.1111 12.8H3.88889Z" fill="#353535"/>
</svg>
