<svg width="130" height="22" viewBox="0 0 130 22" fill="none" xmlns="http://www.w3.org/2000/svg">
<path d="M12.7703 12.9744C12.8628 13.0152 12.9091 13.097 12.9091 13.2196C12.9091 13.3341 12.8544 13.4812 12.7451 13.6611C12.2909 14.5604 11.7147 15.3289 11.0166 15.9666C10.3268 16.5961 9.53619 17.0784 8.6446 17.4136C7.75301 17.7406 6.77311 17.9041 5.70488 17.9041C4.41797 17.9041 3.30768 17.5975 2.37404 16.9844C1.44881 16.3631 0.780114 15.4556 0.367964 14.262C-0.0357743 13.0684 -0.10727 11.6172 0.153478 9.90858C0.346936 8.61687 0.733852 7.38647 1.31423 6.21739C1.90301 5.04831 2.63899 4.01003 3.52217 3.10256C4.41376 2.18692 5.41469 1.46748 6.52498 0.944259C7.64367 0.412857 8.83806 0.147157 10.1082 0.147157C10.6212 0.147157 11.0544 0.204385 11.4077 0.318841C11.7694 0.42512 12.068 0.551838 12.3035 0.698996C12.539 0.837978 12.7282 0.964697 12.8712 1.07915C13.0142 1.18543 13.1278 1.23857 13.2119 1.23857C13.296 1.23857 13.3843 1.18543 13.4768 1.07915C13.5694 0.964697 13.6619 0.842066 13.7544 0.711259C13.8469 0.572278 13.9437 0.449647 14.0446 0.343367C14.1455 0.228911 14.2465 0.171683 14.3474 0.171683C14.4568 0.171683 14.5451 0.208472 14.6124 0.282051C14.6881 0.347455 14.7301 0.449647 14.7385 0.588628L15.0287 4.50056C15.0371 4.62319 14.9993 4.72129 14.9152 4.79487C14.8395 4.86027 14.7469 4.89298 14.6376 4.89298C14.4525 4.90115 14.3096 4.79487 14.2086 4.57414L13.868 3.45819C13.5736 2.5262 13.1194 1.85173 12.5054 1.43478C11.8913 1.01784 11.0923 0.809364 10.1082 0.809364C9.09881 0.809364 8.15255 1.05463 7.26937 1.54515C6.3946 2.0275 5.60815 2.68971 4.91002 3.53177C4.21189 4.36566 3.62731 5.32627 3.15628 6.4136C2.69367 7.49275 2.36983 8.62505 2.18479 9.81048C1.93245 11.4456 1.95348 12.7945 2.24787 13.8573C2.54226 14.9201 3.04694 15.7131 3.76189 16.2363C4.48526 16.7514 5.3432 17.0089 6.33572 17.0089C7.10114 17.0089 7.82871 16.8822 8.51843 16.6288C9.21657 16.3753 9.86423 15.9747 10.4614 15.427C11.067 14.8792 11.6138 14.168 12.1016 13.2932C12.2194 13.1542 12.3329 13.0561 12.4423 12.9989C12.5516 12.9335 12.661 12.9253 12.7703 12.9744Z" fill="#353535"/>
<path d="M21.7397 6.37681C22.6145 6.40951 23.3631 6.65069 23.9855 7.10033C24.6163 7.54181 25.0663 8.17131 25.3355 8.98885C25.6046 9.79822 25.6383 10.7711 25.4364 11.9075C25.2766 12.7741 24.9864 13.5793 24.5659 14.3233C24.1537 15.0591 23.6448 15.6968 23.0392 16.2363C22.442 16.7677 21.7775 17.1765 21.0458 17.4627C20.314 17.7488 19.5486 17.8755 18.7495 17.8428C17.9084 17.8101 17.1766 17.5771 16.5542 17.1438C15.9317 16.7023 15.4859 16.0769 15.2168 15.2676C14.9476 14.45 14.914 13.469 15.1159 12.3244C15.2841 11.4415 15.5743 10.628 15.9864 9.88406C16.3986 9.1401 16.9032 8.50242 17.5004 7.97101C18.0976 7.43144 18.7579 7.02267 19.4813 6.7447C20.2046 6.45857 20.9574 6.33593 21.7397 6.37681ZM18.8757 17.1683C19.2962 17.201 19.7084 17.1397 20.1121 16.9844C20.5159 16.8291 20.9028 16.5961 21.2729 16.2854C21.643 15.9666 21.9794 15.5823 22.2822 15.1327C22.5934 14.683 22.8626 14.1721 23.0897 13.5998C23.3168 13.0275 23.4934 12.4103 23.6196 11.748C23.8215 10.7016 23.8635 9.83909 23.7458 9.16053C23.628 8.48198 23.3841 7.97101 23.014 7.62765C22.6439 7.27611 22.1813 7.0799 21.6261 7.03902C21.2056 7.00632 20.7976 7.06763 20.4023 7.22297C20.007 7.3783 19.6243 7.6113 19.2542 7.92196C18.8925 8.23263 18.556 8.61687 18.2448 9.07469C17.942 9.52434 17.6771 10.0394 17.45 10.6198C17.2229 11.1921 17.0462 11.8175 16.9201 12.4961C16.7182 13.5425 16.6761 14.4051 16.7939 15.0836C16.9201 15.7622 17.164 16.2731 17.5257 16.6165C17.8873 16.9517 18.3373 17.1356 18.8757 17.1683Z" fill="#353535"/>
<path d="M30.9312 7.55407L31.1962 6.80602L34.363 6.81828C34.4892 6.81828 34.5859 6.83872 34.6532 6.8796C34.7289 6.92048 34.7668 6.98997 34.7668 7.08807C34.7668 7.16983 34.7289 7.24749 34.6532 7.32107C34.5859 7.39465 34.4892 7.45188 34.363 7.49275C34.2453 7.53363 34.1065 7.55407 33.9467 7.55407H30.9312ZM28.0925 7.12486C28.0925 7.03493 28.1303 6.96135 28.206 6.90412C28.2817 6.83872 28.3995 6.80602 28.5593 6.80602H30.2499L30.9691 4.07135C31.2887 2.80416 31.806 1.83946 32.521 1.17726C33.2359 0.506874 34.1696 0.171683 35.3219 0.171683C35.9023 0.171683 36.327 0.269788 36.5962 0.465998C36.8654 0.654032 36.9999 0.878855 36.9999 1.14047C36.9999 1.40208 36.9158 1.61873 36.7476 1.79041C36.5794 1.95392 36.3565 2.03567 36.0789 2.03567C35.877 2.03567 35.692 1.99889 35.5238 1.92531C35.3555 1.84355 35.1915 1.75362 35.0317 1.65552C34.8719 1.54924 34.7037 1.45931 34.527 1.38573C34.3588 1.30398 34.1654 1.2631 33.9467 1.2631C33.484 1.2631 33.0887 1.43069 32.7607 1.76589C32.4411 2.0929 32.2224 2.51394 32.1046 3.02899C32.0457 3.2906 32.0163 3.56856 32.0163 3.86288C32.0163 4.15719 32.0247 4.45968 32.0415 4.77034C32.0668 5.08101 32.0752 5.38759 32.0668 5.69008C32.0583 5.99257 32.0163 6.27871 31.9406 6.54849L28.4836 18.7625C28.4247 19.0078 28.3742 19.2285 28.3322 19.4247C28.2985 19.621 28.2817 19.8049 28.2817 19.9766C28.2817 20.1401 28.3111 20.2791 28.37 20.3935C28.4373 20.508 28.5046 20.6143 28.5719 20.7124C28.6392 20.8105 28.6728 20.929 28.6728 21.068C28.6728 21.2315 28.5929 21.3828 28.4331 21.5217C28.2817 21.6689 28.084 21.7834 27.8401 21.8651C27.5962 21.955 27.3312 22 27.0453 22C26.6752 22 26.4354 21.8569 26.3261 21.5708C26.2083 21.2847 26.2378 20.835 26.4144 20.2218L29.7705 8.7068C29.8883 8.29803 29.8714 7.99963 29.72 7.81159C29.577 7.61538 29.1817 7.50093 28.534 7.46823C28.3574 7.43553 28.2397 7.38647 28.1808 7.32107C28.1219 7.25567 28.0925 7.19026 28.0925 7.12486ZM38.0976 7.55407L38.3626 6.80602L41.5294 6.81828C41.6555 6.81828 41.7523 6.83872 41.8196 6.8796C41.8953 6.92048 41.9331 6.98997 41.9331 7.08807C41.9331 7.16983 41.8953 7.24749 41.8196 7.32107C41.7523 7.39465 41.6555 7.45188 41.5294 7.49275C41.4116 7.53363 41.2728 7.55407 41.113 7.55407H38.0976ZM35.2588 7.12486C35.2588 7.03493 35.2967 6.96135 35.3724 6.90412C35.4481 6.83872 35.5658 6.80602 35.7256 6.80602H37.4163L38.1354 4.07135C38.4551 2.80416 38.9724 1.83946 39.6873 1.17726C40.4023 0.506874 41.3359 0.171683 42.4883 0.171683C43.0686 0.171683 43.4934 0.269788 43.7626 0.465998C44.0317 0.654032 44.1663 0.878855 44.1663 1.14047C44.1663 1.40208 44.0822 1.61873 43.914 1.79041C43.7457 1.95392 43.5228 2.03567 43.2453 2.03567C43.0434 2.03567 42.8583 1.99889 42.6901 1.92531C42.5219 1.84355 42.3579 1.75362 42.1981 1.65552C42.0383 1.54924 41.87 1.45931 41.6934 1.38573C41.5252 1.30398 41.3317 1.2631 41.113 1.2631C40.6504 1.2631 40.2551 1.43069 39.927 1.76589C39.6074 2.0929 39.3887 2.51394 39.271 3.02899C39.2121 3.2906 39.1826 3.56856 39.1826 3.86288C39.1826 4.15719 39.1911 4.45968 39.2079 4.77034C39.2331 5.08101 39.2415 5.38759 39.2331 5.69008C39.2247 5.99257 39.1826 6.27871 39.1069 6.54849L35.6499 18.7625C35.5911 19.0078 35.5406 19.2285 35.4985 19.4247C35.4649 19.621 35.4481 19.8049 35.4481 19.9766C35.4481 20.1401 35.4775 20.2791 35.5364 20.3935C35.6037 20.508 35.671 20.6143 35.7383 20.7124C35.8055 20.8105 35.8392 20.929 35.8392 21.068C35.8392 21.2315 35.7593 21.3828 35.5995 21.5217C35.4481 21.6689 35.2504 21.7834 35.0065 21.8651C34.7626 21.955 34.4976 22 34.2116 22C33.8415 22 33.5976 21.8569 33.4798 21.5708C33.3705 21.2847 33.4041 20.835 33.5808 20.2218L36.9369 8.7068C37.0546 8.29803 37.0378 7.99963 36.8864 7.81159C36.7434 7.61538 36.3481 7.50093 35.7004 7.46823C35.5238 7.43553 35.406 7.38647 35.3471 7.32107C35.2883 7.25567 35.2588 7.19026 35.2588 7.12486Z" fill="#353535"/>
<path d="M42.6379 12.5697C42.6379 12.5697 42.8019 12.5043 43.1299 12.3735C43.458 12.2427 43.8827 12.0751 44.4042 11.8707C44.9341 11.6663 45.5019 11.4456 46.1075 11.2085C46.7131 10.9632 47.2977 10.7302 47.8612 10.5095C48.4248 10.2806 48.9084 10.0844 49.3122 9.92085L49.0977 10.2397C49.1482 10.0925 49.186 9.92902 49.2113 9.74916C49.2365 9.56113 49.2533 9.32813 49.2617 9.05017C49.2617 8.45336 49.1229 7.95875 48.8454 7.56633C48.5762 7.17391 48.2229 6.9777 47.7855 6.9777C47.3313 6.9777 46.8645 7.13712 46.3851 7.45596C45.9056 7.77481 45.4514 8.22036 45.0225 8.79264C44.6019 9.35674 44.2444 10.0149 43.95 10.767C43.664 11.5191 43.4874 12.3244 43.4201 13.1828C43.3276 14.4091 43.5211 15.333 44.0005 15.9543C44.4883 16.5674 45.1612 16.874 46.0192 16.874C46.5575 16.874 47.0874 16.7677 47.6089 16.5552C48.1304 16.3426 48.593 16.0279 48.9968 15.6109C49.4089 15.194 49.7201 14.6789 49.9304 14.0658C49.9977 13.9431 50.0608 13.8614 50.1197 13.8205C50.1785 13.7715 50.2458 13.7469 50.3215 13.7469C50.4141 13.7469 50.4813 13.7837 50.5234 13.8573C50.5739 13.9309 50.5823 14.0494 50.5486 14.2129C50.4225 14.8424 50.1281 15.4352 49.6655 15.9911C49.2028 16.5388 48.593 16.9844 47.836 17.3278C47.0874 17.6711 46.2126 17.8428 45.2117 17.8428C44.3958 17.8428 43.7103 17.6793 43.1552 17.3523C42.6084 17.0171 42.2047 16.5388 41.944 15.9175C41.6832 15.2962 41.5865 14.5481 41.6538 13.6734C41.7211 12.7087 41.944 11.7889 42.3225 10.9142C42.7094 10.0394 43.2056 9.25864 43.8112 8.57191C44.4253 7.88517 45.1066 7.3456 45.8552 6.95318C46.6122 6.56076 47.386 6.36455 48.1767 6.36455C48.7402 6.36455 49.2197 6.48309 49.615 6.72018C50.0103 6.95726 50.3089 7.27611 50.5108 7.6767C50.7211 8.06912 50.8346 8.5065 50.8514 8.98885C50.8598 9.08696 50.8893 9.16462 50.9398 9.22185C50.9986 9.2709 51.0827 9.28725 51.1921 9.2709C51.3014 9.25455 51.3813 9.26682 51.4318 9.30769C51.4823 9.34039 51.5075 9.39353 51.5075 9.46711C51.5075 9.55704 51.4655 9.64288 51.3813 9.72464C51.2972 9.79822 51.1332 9.87997 50.8893 9.9699C50.6117 10.0762 50.2206 10.2274 49.7159 10.4236C49.2112 10.6198 48.6519 10.8365 48.0379 11.0736C47.4239 11.3107 46.8056 11.5518 46.1832 11.7971C45.5608 12.0342 44.9888 12.2549 44.4673 12.4593C43.9458 12.6555 43.5253 12.8149 43.2056 12.9376C42.886 13.0602 42.7262 13.1215 42.7262 13.1215L42.6379 12.5697Z" fill="#353535"/>
<path d="M53.8501 12.5697C53.8501 12.5697 54.0141 12.5043 54.3422 12.3735C54.6702 12.2427 55.095 12.0751 55.6165 11.8707C56.1464 11.6663 56.7141 11.4456 57.3197 11.2085C57.9253 10.9632 58.5099 10.7302 59.0735 10.5095C59.637 10.2806 60.1207 10.0844 60.5244 9.92085L60.3099 10.2397C60.3604 10.0925 60.3982 9.92902 60.4235 9.74916C60.4487 9.56113 60.4655 9.32813 60.4739 9.05017C60.4739 8.45336 60.3351 7.95875 60.0576 7.56633C59.7884 7.17391 59.4351 6.9777 58.9978 6.9777C58.5436 6.9777 58.0767 7.13712 57.5973 7.45596C57.1179 7.77481 56.6637 8.22036 56.2347 8.79264C55.8141 9.35674 55.4566 10.0149 55.1622 10.767C54.8763 11.5191 54.6996 12.3244 54.6323 13.1828C54.5398 14.4091 54.7333 15.333 55.2127 15.9543C55.7006 16.5674 56.3735 16.874 57.2314 16.874C57.7697 16.874 58.2996 16.7677 58.8211 16.5552C59.3426 16.3426 59.8052 16.0279 60.209 15.6109C60.6211 15.194 60.9323 14.6789 61.1426 14.0658C61.2099 13.9431 61.273 13.8614 61.3319 13.8205C61.3908 13.7715 61.458 13.7469 61.5337 13.7469C61.6263 13.7469 61.6936 13.7837 61.7356 13.8573C61.7861 13.9309 61.7945 14.0494 61.7608 14.2129C61.6347 14.8424 61.3403 15.4352 60.8777 15.9911C60.4151 16.5388 59.8052 16.9844 59.0482 17.3278C58.2996 17.6711 57.4249 17.8428 56.4239 17.8428C55.608 17.8428 54.9225 17.6793 54.3674 17.3523C53.8207 17.0171 53.4169 16.5388 53.1562 15.9175C52.8954 15.2962 52.7987 14.5481 52.866 13.6734C52.9333 12.7087 53.1562 11.7889 53.5347 10.9142C53.9216 10.0394 54.4179 9.25864 55.0235 8.57191C55.6375 7.88517 56.3188 7.3456 57.0674 6.95318C57.8244 6.56076 58.5982 6.36455 59.3889 6.36455C59.9524 6.36455 60.4319 6.48309 60.8272 6.72018C61.2225 6.95726 61.5211 7.27611 61.723 7.6767C61.9333 8.06912 62.0468 8.5065 62.0637 8.98885C62.0721 9.08696 62.1015 9.16462 62.152 9.22185C62.2108 9.2709 62.295 9.28725 62.4043 9.2709C62.5137 9.25455 62.5936 9.26682 62.644 9.30769C62.6945 9.34039 62.7197 9.39353 62.7197 9.46711C62.7197 9.55704 62.6777 9.64288 62.5936 9.72464C62.5094 9.79822 62.3454 9.87997 62.1015 9.9699C61.8239 10.0762 61.4328 10.2274 60.9281 10.4236C60.4235 10.6198 59.8641 10.8365 59.2501 11.0736C58.6361 11.3107 58.0179 11.5518 57.3954 11.7971C56.773 12.0342 56.201 12.2549 55.6795 12.4593C55.158 12.6555 54.7375 12.8149 54.4179 12.9376C54.0982 13.0602 53.9384 13.1215 53.9384 13.1215L53.8501 12.5697Z" fill="#353535"/>
<path d="M82.6557 12.9744C82.7482 13.0152 82.7945 13.097 82.7945 13.2196C82.7945 13.3341 82.7398 13.4812 82.6305 13.6611C82.1763 14.5604 81.6001 15.3289 80.902 15.9666C80.2122 16.5961 79.4216 17.0784 78.53 17.4136C77.6384 17.7406 76.6585 17.9041 75.5903 17.9041C74.3034 17.9041 73.1931 17.5975 72.2594 16.9844C71.3342 16.3631 70.6655 15.4556 70.2533 14.262C69.8496 13.0684 69.7781 11.6172 70.0389 9.90858C70.2323 8.61687 70.6192 7.38647 71.1996 6.21739C71.7884 5.04831 72.5244 4.01003 73.4076 3.10256C74.2991 2.18692 75.3001 1.46748 76.4104 0.944259C77.5291 0.412857 78.7234 0.147157 79.9935 0.147157C80.5066 0.147157 80.9398 0.204385 81.2931 0.318841C81.6548 0.42512 81.9534 0.551838 82.1889 0.698996C82.4244 0.837978 82.6136 0.964697 82.7566 1.07915C82.8996 1.18543 83.0132 1.23857 83.0973 1.23857C83.1814 1.23857 83.2697 1.18543 83.3622 1.07915C83.4548 0.964697 83.5473 0.842066 83.6398 0.711259C83.7323 0.572278 83.8291 0.449647 83.93 0.343367C84.0309 0.228911 84.1319 0.171683 84.2328 0.171683C84.3421 0.171683 84.4305 0.208472 84.4977 0.282051C84.5734 0.347455 84.6155 0.449647 84.6239 0.588628L84.9141 4.50056C84.9225 4.62319 84.8847 4.72129 84.8006 4.79487C84.7249 4.86027 84.6323 4.89298 84.523 4.89298C84.3379 4.90115 84.1949 4.79487 84.094 4.57414L83.7534 3.45819C83.459 2.5262 83.0048 1.85173 82.3907 1.43478C81.7767 1.01784 80.9777 0.809364 79.9935 0.809364C78.9842 0.809364 78.0379 1.05463 77.1548 1.54515C76.28 2.0275 75.4935 2.68971 74.7954 3.53177C74.0973 4.36566 73.5127 5.32627 73.0417 6.4136C72.5791 7.49275 72.2552 8.62505 72.0702 9.81048C71.8178 11.4456 71.8389 12.7945 72.1333 13.8573C72.4277 14.9201 72.9323 15.7131 73.6473 16.2363C74.3706 16.7514 75.2286 17.0089 76.2211 17.0089C76.9865 17.0089 77.7141 16.8822 78.4038 16.6288C79.102 16.3753 79.7496 15.9747 80.3468 15.427C80.9524 14.8792 81.4992 14.168 81.987 13.2932C82.1048 13.1542 82.2183 13.0561 82.3277 12.9989C82.437 12.9335 82.5463 12.9253 82.6557 12.9744Z" fill="#353535"/>
<path d="M87.5877 13.6979C87.9578 12.6596 88.391 11.7521 88.8872 10.9755C89.3919 10.1988 89.9176 9.55704 90.4643 9.05017C91.0195 8.53512 91.5536 8.15087 92.0667 7.89744C92.5882 7.63582 93.0424 7.50502 93.4293 7.50502C93.9171 7.50502 94.2157 7.6767 94.3251 8.02007C94.4344 8.36343 94.3251 8.98476 93.997 9.88406L92.1045 15.2553C91.9026 15.8194 91.8059 16.2936 91.8143 16.6778C91.8227 17.0621 91.9321 17.3523 92.1424 17.5485C92.3611 17.7447 92.6723 17.8428 93.076 17.8428C93.5975 17.8428 94.0896 17.7038 94.5522 17.4259C95.0232 17.1479 95.4059 16.7718 95.7003 16.2977C95.7592 16.175 95.7928 16.0728 95.8012 15.9911C95.8097 15.9012 95.7802 15.8439 95.7129 15.8194C95.6456 15.7867 95.5741 15.7867 95.4984 15.8194C95.4311 15.8521 95.347 15.9175 95.2461 16.0156C94.9769 16.2854 94.7456 16.4734 94.5522 16.5797C94.3671 16.686 94.1947 16.7391 94.0349 16.7391C93.791 16.7391 93.6354 16.6083 93.5681 16.3467C93.5008 16.0769 93.5933 15.5946 93.8456 14.8997L95.6751 9.76143C95.9358 9.05834 96.0914 8.45336 96.1419 7.94649C96.1924 7.43961 96.0914 7.05128 95.8391 6.78149C95.5952 6.51171 95.1494 6.37681 94.5017 6.37681C93.8961 6.37681 93.1896 6.55667 92.3821 6.91639C91.583 7.27611 90.7797 7.86882 89.9723 8.69454C89.1648 9.52025 88.433 10.6403 87.7769 12.0546L87.9788 12.1159L89.9596 5.16276C90.2288 4.18989 90.5737 3.39279 90.9942 2.77146C91.4232 2.14195 91.9068 1.67596 92.4452 1.37347C92.9835 1.0628 93.5512 0.907469 94.1484 0.907469C94.4092 0.907469 94.6573 0.952434 94.8928 1.04236C95.1283 1.13229 95.3555 1.23449 95.5741 1.34894C95.7928 1.4634 96.0073 1.56559 96.2176 1.65552C96.4363 1.74545 96.6592 1.79041 96.8863 1.79041C97.2312 1.79041 97.4961 1.71683 97.6812 1.56968C97.8662 1.41434 97.9587 1.20996 97.9587 0.956521C97.9587 0.686733 97.8073 0.46191 97.5045 0.282051C97.2017 0.0940171 96.7181 0 96.0536 0C94.6825 0 93.4755 0.21256 92.4325 0.63768C91.398 1.0628 90.5232 1.70866 89.8083 2.57525C89.1017 3.43367 88.555 4.52917 88.1681 5.86176L85.1274 16.359C85.0349 16.6778 84.9886 16.9476 84.9886 17.1683C84.9886 17.3891 85.0433 17.5567 85.1526 17.6711C85.262 17.7856 85.4302 17.8428 85.6573 17.8428C86.0947 17.8428 86.4522 17.7651 86.7297 17.6098C87.0073 17.4463 87.1461 17.2419 87.1461 16.9967C87.1461 16.825 87.1251 16.6819 87.083 16.5674C87.041 16.4448 87.0199 16.2936 87.0199 16.1137C87.0199 15.9666 87.0368 15.7826 87.0704 15.5619C87.1124 15.333 87.1755 15.0632 87.2597 14.7525C87.3438 14.4337 87.4531 14.0821 87.5877 13.6979Z" fill="#353535"/>
<path d="M100.977 14.8997C100.725 15.5782 100.632 16.0565 100.699 16.3344C100.767 16.6042 100.922 16.7391 101.166 16.7391C101.326 16.7391 101.498 16.686 101.683 16.5797C101.877 16.4734 102.108 16.2813 102.377 16.0033C102.478 15.9052 102.562 15.8398 102.63 15.8071C102.705 15.7744 102.777 15.7744 102.844 15.8071C102.911 15.8398 102.941 15.9012 102.933 15.9911C102.924 16.0728 102.89 16.1709 102.832 16.2854C102.546 16.7677 102.167 17.1479 101.696 17.4259C101.233 17.6957 100.737 17.8305 100.207 17.8305C99.812 17.8305 99.5007 17.7324 99.2736 17.5362C99.0549 17.34 98.9414 17.0498 98.933 16.6656C98.9246 16.2813 99.0297 15.8071 99.2484 15.243L101.482 9.36901C101.742 8.66592 101.839 8.1754 101.772 7.89744C101.713 7.61947 101.557 7.48049 101.305 7.48049C101.154 7.48049 100.981 7.53363 100.788 7.63991C100.603 7.74619 100.371 7.93831 100.094 8.21628C99.9928 8.31438 99.9045 8.37978 99.8288 8.41249C99.7615 8.44519 99.6942 8.44519 99.6269 8.41249C99.5596 8.37978 99.5302 8.32256 99.5386 8.2408C99.547 8.15905 99.5806 8.05686 99.6395 7.93423C99.9339 7.45188 100.312 7.07172 100.775 6.79376C101.246 6.51579 101.738 6.37681 102.251 6.37681C102.638 6.37681 102.941 6.47492 103.16 6.67113C103.378 6.85916 103.496 7.15347 103.513 7.55407C103.53 7.94649 103.425 8.43701 103.197 9.02564L100.977 14.8997ZM103.197 3.76477C102.811 3.76477 102.516 3.65032 102.314 3.4214C102.112 3.18432 102.037 2.90635 102.087 2.58751C102.129 2.3259 102.234 2.08064 102.403 1.85173C102.579 1.61464 102.798 1.42252 103.059 1.27536C103.319 1.1282 103.601 1.05463 103.904 1.05463C104.316 1.05463 104.615 1.16908 104.8 1.39799C104.993 1.6269 105.061 1.90896 105.002 2.24415C104.968 2.50576 104.863 2.75511 104.686 2.9922C104.518 3.22111 104.304 3.40914 104.043 3.5563C103.79 3.69528 103.509 3.76477 103.197 3.76477Z" fill="#353535"/>
<path d="M106.723 8.41249C106.655 8.37978 106.622 8.32256 106.622 8.2408C106.63 8.15905 106.668 8.05686 106.735 7.93423C107.03 7.45188 107.412 7.07172 107.883 6.79376C108.354 6.51579 108.851 6.37681 109.372 6.37681C109.751 6.37681 110.049 6.46265 110.268 6.63434C110.495 6.80602 110.609 7.07172 110.609 7.43144C110.609 7.65217 110.562 7.91379 110.47 8.21628C110.386 8.51877 110.255 8.89075 110.079 9.33222C109.911 9.76551 109.692 10.2969 109.423 10.9264C109.162 11.5478 108.855 12.2917 108.502 13.1583L108.552 12.5942C109.048 11.4333 109.599 10.4563 110.205 9.66332C110.811 8.86213 111.429 8.22036 112.06 7.73802C112.69 7.25567 113.3 6.90821 113.889 6.69565C114.486 6.48309 115.02 6.37681 115.491 6.37681C116.139 6.37681 116.585 6.51171 116.829 6.78149C117.081 7.05128 117.182 7.43961 117.132 7.94649C117.081 8.45336 116.93 9.05834 116.677 9.76143L114.848 14.8997C114.596 15.5946 114.503 16.0769 114.57 16.3467C114.638 16.6083 114.789 16.7391 115.025 16.7391C115.184 16.7391 115.357 16.686 115.542 16.5797C115.735 16.4734 115.967 16.2854 116.236 16.0156C116.345 15.9175 116.433 15.8521 116.501 15.8194C116.568 15.7867 116.635 15.7867 116.703 15.8194C116.77 15.8439 116.799 15.9012 116.791 15.9911C116.791 16.0728 116.757 16.175 116.69 16.2977C116.404 16.7718 116.025 17.1479 115.554 17.4259C115.092 17.7038 114.596 17.8428 114.066 17.8428C113.67 17.8428 113.363 17.7447 113.145 17.5485C112.934 17.3523 112.825 17.0621 112.817 16.6778C112.808 16.2936 112.901 15.8194 113.094 15.2553L114.999 9.88406C115.327 8.98476 115.433 8.36343 115.315 8.02007C115.205 7.6767 114.907 7.50502 114.419 7.50502C114.049 7.50502 113.607 7.62765 113.094 7.87291C112.59 8.11817 112.064 8.49424 111.517 9.00111C110.97 9.49981 110.44 10.1416 109.927 10.9264C109.423 11.7031 108.981 12.6187 108.603 13.6734C108.409 14.2211 108.262 14.6503 108.161 14.961C108.06 15.2716 107.993 15.5087 107.959 15.6722C107.925 15.8357 107.909 15.9706 107.909 16.0769C107.909 16.265 107.938 16.4162 107.997 16.5307C108.056 16.6369 108.085 16.7759 108.085 16.9476C108.085 17.2174 107.951 17.434 107.682 17.5975C107.412 17.7611 107.063 17.8428 106.634 17.8428C106.256 17.8428 106.029 17.6916 105.953 17.3891C105.877 17.0866 105.966 16.5879 106.218 15.893L108.577 9.36901C108.83 8.65775 108.926 8.16722 108.868 7.89744C108.809 7.61947 108.653 7.48049 108.401 7.48049C108.249 7.48049 108.077 7.53363 107.883 7.63991C107.69 7.74619 107.459 7.93831 107.19 8.21628C107.08 8.31438 106.988 8.37978 106.912 8.41249C106.845 8.44519 106.782 8.44519 106.723 8.41249Z" fill="#353535"/>
<path d="M126.173 6.37681C127.048 6.40951 127.797 6.65069 128.419 7.10033C129.05 7.54181 129.5 8.17131 129.769 8.98885C130.038 9.79822 130.072 10.7711 129.87 11.9075C129.71 12.7741 129.42 13.5793 129 14.3233C128.588 15.0591 128.079 15.6968 127.473 16.2363C126.876 16.7677 126.211 17.1765 125.48 17.4627C124.748 17.7488 123.982 17.8755 123.183 17.8428C122.342 17.8101 121.61 17.5771 120.988 17.1438C120.366 16.7023 119.92 16.0769 119.651 15.2676C119.381 14.45 119.348 13.469 119.55 12.3244C119.718 11.4415 120.008 10.628 120.42 9.88406C120.832 9.1401 121.337 8.50242 121.934 7.97101C122.531 7.43144 123.192 7.02267 123.915 6.7447C124.638 6.45857 125.391 6.33593 126.173 6.37681ZM123.309 17.1683C123.73 17.201 124.142 17.1397 124.546 16.9844C124.95 16.8291 125.337 16.5961 125.707 16.2854C126.077 15.9666 126.413 15.5823 126.716 15.1327C127.027 14.683 127.296 14.1721 127.523 13.5998C127.751 13.0275 127.927 12.4103 128.053 11.748C128.255 10.7016 128.297 9.83909 128.18 9.16053C128.062 8.48198 127.818 7.97101 127.448 7.62765C127.078 7.27611 126.615 7.0799 126.06 7.03902C125.639 7.00632 125.231 7.06763 124.836 7.22297C124.441 7.3783 124.058 7.6113 123.688 7.92196C123.326 8.23263 122.99 8.61687 122.679 9.07469C122.376 9.52434 122.111 10.0394 121.884 10.6198C121.657 11.1921 121.48 11.8175 121.354 12.4961C121.152 13.5425 121.11 14.4051 121.228 15.0836C121.354 15.7622 121.598 16.2731 121.959 16.6165C122.321 16.9517 122.771 17.1356 123.309 17.1683Z" fill="#353535"/>
</svg>
