<svg width="64" height="64" viewBox="0 0 64 64" fill="none" xmlns="http://www.w3.org/2000/svg">
<circle cx="32" cy="32" r="32" fill="#D9D9D3"/>
<path d="M24.6361 38.7116C25.2355 39.9863 26.4544 40.8614 27.8585 40.8614H31.0194C33.0532 40.8614 34.7713 39.0589 34.7713 36.9253V32.0524C34.7713 31.7628 34.5457 31.5281 34.2674 31.5281H24.7442C24.4659 31.5281 24.2403 31.7628 24.2403 32.0524V32.6292H23.8888C22.5954 32.6292 21.6202 33.632 21.6202 34.9618V36.2623C21.6202 37.6129 22.6378 38.7116 23.8888 38.7116H24.6361ZM25.2481 32.5768H33.7636V36.9253C33.7636 37.663 33.4651 38.4008 32.9446 38.9494C32.4164 39.5061 31.7326 39.8127 31.0194 39.8127H27.8585C26.4191 39.8127 25.2481 38.5174 25.2481 36.9253V32.5768ZM22.6279 36.2623V34.9618C22.6279 34.2179 23.1581 33.6779 23.8888 33.6779H24.2403V36.9253C24.2403 37.1775 24.2631 37.4238 24.305 37.6629H23.8888C23.1936 37.6629 22.6279 37.0347 22.6279 36.2623Z" fill="black"/>
<path d="M43.9079 19.1519C43.2009 18.4091 42.2511 18 41.2334 18H22.8552C20.7294 18 19 19.7689 19 21.9432V22.9268C19 23.9859 19.4048 24.9863 20.1398 25.7437C20.8721 26.4983 21.8364 26.9139 22.8552 26.9139H26.2261L26.4576 28.0696C26.5063 28.3127 26.7122 28.4869 26.9509 28.4869H28.0698V29.3783C28.0698 29.6679 28.2954 29.9026 28.5736 29.9026H30.438C30.7162 29.9026 30.9419 29.6679 30.9419 29.3783V28.4869H32.0967C32.3354 28.4869 32.5413 28.3127 32.59 28.0696L32.8215 26.9139H36.5349V41.4906H23.2227C21.0851 41.4906 19.4108 43.2411 19.4108 45.4757C19.4108 45.7652 19.6364 46 19.9146 46H44.4961C44.7744 46 45 45.7652 45 45.4757V21.9432C45 20.8832 44.6122 19.8918 43.9079 19.1519ZM29.9341 28.8539H29.0775V28.4869H29.9341V28.8539ZM31.687 27.4382H27.3606L27.2555 26.9139H31.7921L31.687 27.4382ZM43.9922 44.9513H20.4599C20.5576 44.3441 20.8254 43.7954 21.2378 43.3709C21.7589 42.8347 22.4638 42.5393 23.2227 42.5393H37.0388C37.317 42.5393 37.5426 42.3045 37.5426 42.015V26.3895C37.5426 26.0999 37.317 25.8652 37.0388 25.8652H22.8552C22.1037 25.8652 21.3912 25.5574 20.849 24.9985C20.3065 24.4396 20.0078 23.7038 20.0078 22.9268V21.9432C20.0078 20.3472 21.2851 19.0487 22.8552 19.0487H41.2334C42.7804 19.0487 43.9922 20.3201 43.9922 21.9432V44.9513Z" fill="black"/>
</svg>
