<svg width="32" height="32" viewBox="0 0 32 32" fill="none" xmlns="http://www.w3.org/2000/svg">
<path d="M0 16C0 24.8366 7.16344 32 16 32C24.8366 32 32 24.8366 32 16C32 7.16344 24.8366 0 16 0C7.16344 0 0 7.16344 0 16Z" fill="#D9D9D3"/>
<path d="M8.09992 15.5965C12.3949 13.7619 15.2589 12.5524 16.6919 11.9681C20.7834 10.2996 21.6335 10.0098 22.1877 10.0001C22.3095 9.99809 22.582 10.0277 22.7586 10.1681C22.9076 10.2867 22.9486 10.4469 22.9683 10.5593C22.9879 10.6717 23.0123 10.9278 22.9929 11.1279C22.7712 13.4119 21.8118 18.9546 21.3237 21.5127C21.1172 22.5951 20.7105 22.958 20.3168 22.9936C19.4613 23.0707 18.8116 22.4392 17.9829 21.9067C16.6862 21.0733 15.9537 20.5545 14.695 19.7414C13.2404 18.8016 14.1834 18.2851 15.0124 17.4409C15.2293 17.22 18.999 13.8584 19.0719 13.5534C19.0811 13.5153 19.0895 13.3731 19.0034 13.298C18.9172 13.223 18.7901 13.2486 18.6983 13.2691C18.5683 13.298 16.4968 14.6403 12.4839 17.2961C11.8959 17.692 11.3633 17.8848 10.8862 17.8747C10.3601 17.8636 9.34822 17.5831 8.59598 17.3434C7.67333 17.0493 6.94002 16.8939 7.00388 16.3945C7.03714 16.1344 7.40248 15.8684 8.09992 15.5965Z" fill="#353535"/>
</svg>
