<svg width="64" height="64" viewBox="0 0 64 64" fill="none" xmlns="http://www.w3.org/2000/svg">
<circle cx="32" cy="32" r="32" fill="#D9D9D3"/>
<path d="M45.8871 29.4323L42.2742 25.2798C42.2318 25.2312 42.1796 25.1922 42.1212 25.1655C42.0628 25.1388 41.9995 25.125 41.9355 25.125H36.0645V21.4583C36.0645 21.3368 36.0169 21.2202 35.9322 21.1342C35.8475 21.0483 35.7327 21 35.6129 21H18.4516C18.3318 21 18.217 21.0483 18.1323 21.1342C18.0476 21.2202 18 21.3368 18 21.4583V39.3332C18 39.4548 18.0476 39.5713 18.1323 39.6573C18.217 39.7433 18.3318 39.7915 18.4516 39.7915H20.2897C20.3989 40.6774 20.8231 41.4923 21.4826 42.0831C22.1421 42.674 22.9915 43 23.8712 43C24.7509 43 25.6003 42.674 26.2598 42.0831C26.9193 41.4923 27.3435 40.6774 27.4527 39.7915H36.9994C37.1085 40.6774 37.5327 41.4923 38.1923 42.0831C38.8518 42.674 39.7012 43 40.5809 43C41.4606 43 42.31 42.674 42.9695 42.0831C43.629 41.4923 44.0532 40.6774 44.1624 39.7915H45.5484C45.6682 39.7915 45.783 39.7433 45.8677 39.6573C45.9524 39.5713 46 39.4548 46 39.3332V29.7358C46 29.6241 45.9598 29.5162 45.8871 29.4323ZM24.3226 21.9167H29.7419V28.184L27.1562 27.4343C27.0752 27.4107 26.9893 27.4107 26.9083 27.4343L24.3226 28.184V21.9167ZM23.871 42.0832C23.335 42.0832 22.8112 41.9219 22.3656 41.6197C21.9199 41.3176 21.5726 40.8881 21.3676 40.3856C21.1625 39.8831 21.1088 39.3302 21.2134 38.7967C21.3179 38.2633 21.576 37.7733 21.9549 37.3887C22.3339 37.0041 22.8167 36.7422 23.3423 36.6361C23.868 36.53 24.4128 36.5844 24.9079 36.7926C25.403 37.0007 25.8262 37.3532 26.124 37.8054C26.4217 38.2576 26.5806 38.7893 26.5806 39.3332C26.5799 40.0623 26.2941 40.7613 25.7861 41.2769C25.2781 41.7924 24.5894 42.0824 23.871 42.0832ZM35.1613 38.8749H27.4556C27.4489 38.8199 27.4371 38.7666 27.428 38.7124C27.4199 38.6643 27.4135 38.6157 27.4035 38.5683C27.3879 38.4938 27.3677 38.4212 27.3477 38.3483C27.337 38.3093 27.3285 38.2694 27.3165 38.231C27.2825 38.1215 27.2437 38.0142 27.2002 37.909C27.1975 37.9026 27.1941 37.8965 27.1914 37.8901C27.1493 37.7909 27.1031 37.6939 27.0531 37.5992C27.0346 37.5644 27.0132 37.5316 26.9937 37.4975C26.9568 37.4333 26.9201 37.3689 26.8796 37.3071C26.8545 37.2689 26.827 37.2329 26.8007 37.1958C26.7617 37.1408 26.7229 37.0858 26.681 37.0335C26.651 36.9958 26.6189 36.9602 26.5876 36.9235C26.5455 36.8748 26.5033 36.8263 26.4588 36.7799C26.4247 36.7442 26.3891 36.7103 26.3536 36.6761C26.3081 36.6323 26.2622 36.589 26.2145 36.5478C26.1768 36.515 26.1382 36.4836 26.0991 36.4526C26.0503 36.4135 26.0006 36.3756 25.9497 36.339C25.909 36.3099 25.8678 36.2816 25.826 36.2541C25.7734 36.2196 25.72 36.1869 25.6656 36.1551C25.6225 36.1299 25.5792 36.1051 25.535 36.0818C25.4788 36.052 25.4214 36.0246 25.3634 35.9978C25.3185 35.977 25.2739 35.9561 25.2279 35.9372C25.1674 35.9121 25.1055 35.8902 25.0434 35.8684C24.9979 35.8525 24.9529 35.8357 24.9065 35.8216C24.8405 35.8015 24.7731 35.7853 24.7056 35.7691C24.661 35.7583 24.6172 35.7461 24.572 35.737C24.4965 35.7218 24.4196 35.7116 24.3425 35.7013C24.3036 35.6961 24.2655 35.6886 24.2261 35.6846C24.1093 35.6732 23.9909 35.6666 23.871 35.6666C23.751 35.6666 23.6326 35.6732 23.5156 35.6849C23.4763 35.6888 23.4381 35.6964 23.3992 35.7016C23.3221 35.7119 23.2452 35.7221 23.1697 35.7372C23.1246 35.7464 23.0807 35.7587 23.0361 35.7693C22.9686 35.7856 22.9012 35.8018 22.8352 35.8219C22.7889 35.836 22.7438 35.8527 22.6983 35.8687C22.6362 35.8904 22.5743 35.9123 22.5138 35.9374C22.468 35.9564 22.4235 35.9773 22.3783 35.9981C22.3204 36.0249 22.263 36.0523 22.2067 36.082C22.1625 36.1055 22.1193 36.1303 22.0761 36.1554C22.0219 36.1871 21.9683 36.2199 21.9157 36.2544C21.8738 36.2819 21.8326 36.3102 21.792 36.3393C21.7411 36.376 21.6914 36.4137 21.6426 36.4528C21.6035 36.484 21.5649 36.5153 21.5272 36.548C21.4795 36.5893 21.4336 36.6325 21.3881 36.6764C21.3526 36.7106 21.317 36.7445 21.2829 36.7801C21.2384 36.8266 21.1962 36.875 21.1542 36.9238C21.1225 36.9604 21.0907 36.996 21.0607 37.0338C21.0189 37.0863 20.98 37.1412 20.941 37.1961C20.9147 37.2332 20.8872 37.2692 20.8621 37.3073C20.8215 37.3691 20.7849 37.4335 20.748 37.4978C20.7285 37.5319 20.7071 37.5647 20.6886 37.5995C20.6384 37.694 20.5923 37.791 20.5503 37.8904C20.5476 37.8968 20.5443 37.9029 20.5415 37.9093C20.4978 38.0142 20.459 38.1215 20.4252 38.2313C20.4132 38.2697 20.4047 38.3096 20.394 38.3486C20.374 38.4213 20.3539 38.4939 20.3382 38.5686C20.3282 38.616 20.3218 38.6646 20.3137 38.7126C20.3047 38.7669 20.2928 38.8202 20.2861 38.8752H18.9032V21.9167H23.4194V28.7916C23.4194 28.8625 23.4356 28.9325 23.4668 28.996C23.4979 29.0594 23.5432 29.1147 23.599 29.1574C23.6548 29.2001 23.7196 29.2291 23.7883 29.2421C23.857 29.2551 23.9277 29.2517 23.9949 29.2323L27.0323 28.3516L30.0696 29.2323C30.1368 29.2517 30.2076 29.2551 30.2763 29.2421C30.345 29.2291 30.4097 29.2001 30.4655 29.1574C30.5213 29.1147 30.5666 29.0594 30.5977 28.996C30.6289 28.9325 30.6451 28.8625 30.6452 28.7916V21.9167H35.1613V38.8749ZM40.5806 42.0832C40.0447 42.0832 39.5208 41.9219 39.0752 41.6197C38.6296 41.3176 38.2823 40.8881 38.0772 40.3856C37.8721 39.8831 37.8185 39.3302 37.923 38.7967C38.0276 38.2633 38.2857 37.7733 38.6646 37.3887C39.0436 37.0041 39.5264 36.7422 40.052 36.6361C40.5776 36.53 41.1225 36.5844 41.6176 36.7926C42.1127 37.0007 42.5359 37.3532 42.8337 37.8054C43.1314 38.2576 43.2903 38.7893 43.2903 39.3332C43.2895 40.0623 43.0038 40.7613 42.4958 41.2769C41.9878 41.7924 41.2991 42.0824 40.5806 42.0832ZM45.0968 38.8749H44.1653C44.1585 38.8199 44.1468 38.7666 44.1377 38.7124C44.1296 38.6643 44.1231 38.6157 44.1132 38.5683C44.0975 38.4938 44.0774 38.4212 44.0573 38.3483C44.0466 38.3093 44.0381 38.2694 44.0262 38.231C43.9921 38.1215 43.9534 38.0142 43.9098 37.909C43.9071 37.9026 43.9038 37.8965 43.9011 37.8901C43.8589 37.7909 43.8128 37.6939 43.7628 37.5992C43.7443 37.5644 43.7229 37.5316 43.7034 37.4975C43.6665 37.4333 43.6298 37.3689 43.5892 37.3071C43.5642 37.2689 43.5367 37.2329 43.5103 37.1958C43.4714 37.1408 43.4325 37.0858 43.3907 37.0335C43.3607 36.9958 43.3286 36.9602 43.2972 36.9235C43.2551 36.8748 43.213 36.8263 43.1685 36.7799C43.1344 36.7442 43.0988 36.7103 43.0633 36.6761C43.0178 36.6323 42.9719 36.589 42.9242 36.5478C42.8865 36.515 42.8479 36.4836 42.8088 36.4526C42.7599 36.4135 42.7103 36.3756 42.6594 36.339C42.6187 36.3099 42.5775 36.2816 42.5357 36.2541C42.4831 36.2196 42.4296 36.1869 42.3753 36.1551C42.3321 36.1299 42.2889 36.1051 42.2447 36.0818C42.1884 36.052 42.131 36.0246 42.073 35.9978C42.0282 35.977 41.9835 35.9561 41.9376 35.9372C41.877 35.9121 41.8152 35.8902 41.7531 35.8684C41.7076 35.8525 41.6625 35.8357 41.6161 35.8216C41.5502 35.8015 41.4827 35.7853 41.4153 35.7691C41.3707 35.7583 41.3268 35.7461 41.2816 35.737C41.2062 35.7218 41.1293 35.7116 41.0522 35.7013C41.0133 35.6961 40.9751 35.6886 40.9358 35.6846C40.819 35.6732 40.7006 35.6666 40.5806 35.6666C40.4607 35.6666 40.3423 35.6732 40.2253 35.6849C40.1859 35.6888 40.1478 35.6964 40.1088 35.7016C40.0318 35.7119 39.9548 35.7221 39.8794 35.7372C39.8343 35.7464 39.7904 35.7587 39.7458 35.7693C39.6783 35.7856 39.6109 35.8018 39.5449 35.8219C39.4985 35.836 39.4535 35.8527 39.4079 35.8687C39.3458 35.8904 39.284 35.9123 39.2235 35.9374C39.1777 35.9564 39.1332 35.9773 39.088 35.9981C39.0301 36.0249 38.9727 36.0523 38.9164 36.082C38.8721 36.1055 38.8289 36.1303 38.7858 36.1554C38.7316 36.1871 38.678 36.2199 38.6254 36.2544C38.5835 36.2819 38.5422 36.3102 38.5016 36.3393C38.4507 36.376 38.4011 36.4137 38.3523 36.4528C38.3132 36.484 38.2746 36.5153 38.2369 36.548C38.1892 36.5893 38.1433 36.6325 38.0978 36.6764C38.0623 36.7106 38.0267 36.7445 37.9925 36.7801C37.9481 36.8266 37.9059 36.875 37.8638 36.9238C37.8324 36.9604 37.8006 36.996 37.7704 37.0338C37.7285 37.0863 37.6897 37.1412 37.6507 37.1961C37.6244 37.2332 37.5968 37.2692 37.5718 37.3073C37.5312 37.3691 37.4945 37.4335 37.4577 37.4978C37.4381 37.5319 37.4168 37.5647 37.3983 37.5995C37.3481 37.694 37.302 37.791 37.26 37.8904C37.2573 37.8968 37.2539 37.9029 37.2512 37.9093C37.2075 38.0142 37.1687 38.1215 37.1349 38.2313C37.1229 38.2697 37.1144 38.3096 37.1037 38.3486C37.0837 38.4213 37.0635 38.4939 37.0479 38.5686C37.0379 38.616 37.0315 38.6646 37.0234 38.7126C37.0143 38.7669 37.0025 38.8202 36.9957 38.8752H36.0645V26.0416H37.9L38.3235 32.4887C38.3311 32.6047 38.3819 32.7135 38.4656 32.793C38.5493 32.8724 38.6596 32.9166 38.7742 32.9166H45.0968V38.8749ZM45.0968 31.9999H39.1967L38.8054 26.0416H41.7318L45.0968 29.9093V31.9999Z" fill="black"/>
</svg>
