<svg width="32" height="32" viewBox="0 0 32 32" fill="none" xmlns="http://www.w3.org/2000/svg">
<path d="M0 16C0 24.8366 7.16344 32 16 32C24.8366 32 32 24.8366 32 16C32 7.16344 24.8366 0 16 0C7.16344 0 0 7.16344 0 16Z" fill="#D9D9D3"/>
<path d="M16.8038 22C10.6539 22 7.14616 17.4955 7 10H10.0806C10.1818 15.5015 12.4528 17.8318 14.2517 18.3123V10H17.1525V14.7447C18.9289 14.5405 20.795 12.3784 21.4246 10H24.3253C23.8419 12.9309 21.8181 15.0931 20.379 15.982C21.8181 16.7027 24.123 18.5886 25 22H21.8069C21.1211 19.7177 19.4123 17.952 17.1525 17.7117V22H16.8038Z" fill="#353535"/>
</svg>
